<svg fill="none" height="512" viewBox="0 0 512 512" width="512" xmlns="http://www.w3.org/2000/svg" xmlns:xlink="http://www.w3.org/1999/xlink"><filter id="a" color-interpolation-filters="sRGB" filterUnits="userSpaceOnUse" height="341.164" width="145.346" x="183.022" y="79.1232"><feFlood flood-opacity="0" result="BackgroundImageFix"/><feBlend in="SourceGraphic" in2="BackgroundImageFix" mode="normal" result="shape"/><feColorMatrix in="SourceAlpha" result="hardAlpha" type="matrix" values="0 0 0 0 0 0 0 0 0 0 0 0 0 0 0 0 0 0 127 0"/><feOffset dy="4"/><feGaussianBlur stdDeviation="2"/><feComposite in2="hardAlpha" k2="-1" k3="1" operator="arithmetic"/><feColorMatrix type="matrix" values="0 0 0 0 0 0 0 0 0 0 0 0 0 0 0 0 0 0 0.25 0"/><feBlend in2="shape" mode="normal" result="effect1_innerShadow_10_9"/></filter><linearGradient id="b"><stop offset="0" stop-color="#a0a0a9"/><stop offset="1" stop-color="#c9c9d8"/></linearGradient><linearGradient id="c" gradientUnits="userSpaceOnUse" x1="278.415" x2="318.682" xlink:href="#b" y1="129.271" y2="129.271"/><linearGradient id="d" gradientUnits="userSpaceOnUse" x1="232.975" x2="192.708" xlink:href="#b" y1="129.271" y2="129.271"/><linearGradient id="e"><stop offset="0" stop-color="#c9c9d8"/><stop offset="1" stop-color="#a0a0a9"/></linearGradient><linearGradient id="f" gradientUnits="userSpaceOnUse" x1="245.334" x2="269.196" xlink:href="#e" y1="343.797" y2="343.797"/><linearGradient id="g" gradientUnits="userSpaceOnUse" x1="242.226" x2="273.246" xlink:href="#e" y1="256.695" y2="256.695"/><linearGradient id="h" gradientUnits="userSpaceOnUse" x1="239.117" x2="277.297" xlink:href="#e" y1="201.168" y2="201.168"/><g fill="#f26e64"><path d="m163.45 266.083h187.756v82.4494h-187.756z"/><circle cx="347.941" cy="347.716" r="81.6331"/><circle cx="163.45" cy="350.981" r="81.6331"/></g><path d="m347.941 389.023c22.542 0 40.816-18.274 40.816-40.817 0-22.542-15.218-40.825-51.077-46.662-42.832-6.973-57.336-30.49-64.746-22.911 0 55.782 38.493 110.39 75.007 110.39z" fill="#fff59d"/><path d="m163.34 389.023c-22.542 0-40.817-18.274-40.817-40.817 0-22.542 15.218-40.825 51.078-46.662 42.832-6.973 57.335-30.49 64.746-22.911 0 55.782-38.494 110.39-75.007 110.39z" fill="#fff59d"/><path d="m299.369 193.779c-21.224 46.123-25.306 49.703-39.184 52.245v21.624c9.616 0 19.061.14 28.344.277 66.86.989 99.412 6.376 129.616-21.901 44.333-41.502 35.511-117.133 80.603-151.8371 8.378-6.4473 22.775-28.1906 0-31.0206-78.562-9.762-164.276 42.4497-199.379 130.6127z" fill="#ff8a65"/><path d="m314.88 205.208c-37.143 69.388-110.479 55.51-19.592 55.51 59.317-5.306 93.106-8.571 118.804-46.878 59.184-88.224-33.498-156.7961-99.212-8.632z" fill="#fff1a9"/><path d="m212.631 193.779c21.224 46.123 25.306 49.703 39.183 52.245v21.624c-9.615 0-19.06.14-28.343.277-66.86.989-99.412 6.376-129.6166-21.901-44.3326-41.502-35.5106-117.133-80.6029-151.8371-8.37711-6.4473-22.77506-28.1906 0-31.0206 78.5621-9.762 164.2765 42.4497 199.3795 130.6127z" fill="#ff8a65"/><path d="m197.12 205.208c37.143 69.388 110.479 55.51 19.592 55.51-59.318-5.306-93.106-8.571-118.8038-46.878-59.184-88.224 33.4978-156.7961 99.2118-8.632z" fill="#fff1a9"/><g filter="url(#a)"><path d="m268.348 185.682c7.347-45.306 26.123-82.049 55.103-101.6411" stroke="url(#c)" stroke-linecap="round" stroke-width="9.83439"/><path d="m243.042 185.682c-7.347-45.306-26.123-82.049-55.102-101.6411" stroke="url(#d)" stroke-linecap="round" stroke-width="9.83439"/><path d="m255.695 286.085c8.79 0 15.917 7.125 15.917 15.916v97.96c0 8.79-7.127 15.917-15.917 15.917-8.791 0-15.916-7.127-15.916-15.917v-97.96c0-8.79 7.125-15.916 15.916-15.916z" fill="url(#f)" stroke="#f5f5f5" stroke-width=".819532"/><path d="m276.92 241.593c0-11.722-9.503-21.225-21.225-21.225s-21.224 9.503-21.224 21.225v39.184c0 11.722 9.502 21.224 21.224 21.224s21.225-9.502 21.225-21.224z" fill="url(#g)"/><path d="m255.696 178.329c14.2 0 25.712 11.512 25.712 25.713-.001 14.2-11.512 25.712-25.712 25.712-14.201 0-25.713-11.511-25.713-25.712s11.512-25.713 25.713-25.713z" fill="url(#h)" stroke="#f5f5f5" stroke-width=".819532"/></g></svg>