<svg fill="none" height="512" viewBox="0 0 513 512" width="513" xmlns="http://www.w3.org/2000/svg" xmlns:xlink="http://www.w3.org/1999/xlink"><filter id="a" color-interpolation-filters="sRGB" filterUnits="userSpaceOnUse" height="342.467" width="145.878" x="182.755" y="80.2192"><feFlood flood-opacity="0" result="BackgroundImageFix"/><feBlend in="SourceGraphic" in2="BackgroundImageFix" mode="normal" result="shape"/><feColorMatrix in="SourceAlpha" result="hardAlpha" type="matrix" values="0 0 0 0 0 0 0 0 0 0 0 0 0 0 0 0 0 0 127 0"/><feOffset dy="4"/><feGaussianBlur stdDeviation="2"/><feComposite in2="hardAlpha" k2="-1" k3="1" operator="arithmetic"/><feColorMatrix type="matrix" values="0 0 0 0 0 0 0 0 0 0 0 0 0 0 0 0 0 0 0.25 0"/><feBlend in2="shape" mode="normal" result="effect1_innerShadow_10_9"/></filter><linearGradient id="b"><stop offset="0" stop-color="#a0a0a9"/><stop offset="1" stop-color="#c9c9d8"/></linearGradient><linearGradient id="c" gradientUnits="userSpaceOnUse" x1="278.503" x2="318.928" xlink:href="#b" y1="130.545" y2="130.545"/><linearGradient id="d" gradientUnits="userSpaceOnUse" x1="232.885" x2="192.46" xlink:href="#b" y1="130.545" y2="130.545"/><linearGradient id="e"><stop offset="0" stop-color="#c9c9d8"/><stop offset="1" stop-color="#a0a0a9"/></linearGradient><linearGradient id="f" gradientUnits="userSpaceOnUse" x1="245.292" x2="269.248" xlink:href="#e" y1="345.912" y2="345.912"/><linearGradient id="g" gradientUnits="userSpaceOnUse" x1="242.172" x2="273.314" xlink:href="#e" y1="258.468" y2="258.468"/><linearGradient id="h" gradientUnits="userSpaceOnUse" x1="239.051" x2="277.38" xlink:href="#e" y1="202.723" y2="202.723"/><g fill="#f26e64"><path d="m163.087 267.893h188.492v82.7727h-188.492z"/><circle cx="348.301" cy="349.846" r="81.9532"/><circle cx="163.087" cy="353.124" r="81.9532"/></g><path d="m348.301 391.315c22.631 0 40.977-18.346 40.977-40.977 0-22.63-15.278-40.985-51.278-46.845-43-7-57.56-30.609-65-23 0 56 38.645 110.822 75.301 110.822z" fill="#fff59d"/><path d="m162.977 391.315c-22.631 0-40.977-18.346-40.977-40.977 0-22.63 15.278-40.985 51.278-46.845 43-7 57.56-30.609 65-23 0 56-38.645 110.822-75.301 110.822z" fill="#fff59d"/><path d="m299.539 195.306c-21.307 46.303-25.405 49.897-39.337 52.45v21.708c9.653 0 19.135.141 28.455.278 67.121.993 99.802 6.401 130.124-21.986 44.507-41.666 35.65-117.593 80.919-152.4333 8.41-6.4726 22.865-28.3011 0-31.1422-78.87-9.8004-164.921 42.6155-200.161 131.1255z" fill="#ff8a65"/><path d="m315.111 206.779c-37.289 69.66-110.913 55.728-19.669 55.728 59.55-5.327 93.471-8.605 119.27-47.062 59.416-88.57-33.629-157.411-99.601-8.666z" fill="#fff1a9"/><path d="m212.461 195.306c21.307 46.303 25.405 49.897 39.337 52.45v21.708c-9.653 0-19.135.141-28.455.278-67.121.993-99.802 6.401-130.1244-21.986-44.5065-41.666-35.6499-117.593-80.919-152.4333-8.40999-6.4726-22.8644-28.3011 0-31.1422 78.8702-9.8004 164.9214 42.6155 200.1614 131.1255z" fill="#ff8a65"/><path d="m196.889 206.779c37.289 69.66 110.913 55.728 19.669 55.728-59.55-5.327-93.471-8.605-119.2697-47.062-59.4161-88.57 33.6287-157.411 99.6007-8.666z" fill="#fff1a9"/><g filter="url(#a)"><path d="m268.397 187.177c7.376-45.484 26.225-82.371 55.318-102.0401" stroke="url(#c)" stroke-linecap="round" stroke-width="9.83439"/><path d="m242.991 187.177c-7.376-45.484-26.225-82.371-55.318-102.0401" stroke="url(#d)" stroke-linecap="round" stroke-width="9.83439"/><path d="m255.694 287.971c8.826 0 15.981 7.155 15.981 15.981v98.344c0 8.826-7.155 15.981-15.981 15.981s-15.98-7.155-15.98-15.981v-98.344c0-8.826 7.154-15.98 15.98-15.981z" fill="url(#f)" stroke="#f5f5f5" stroke-width=".819532"/><path d="m277.002 243.307c0-11.768-9.54-21.308-21.308-21.308s-21.308 9.54-21.308 21.308v39.337c0 11.768 9.54 21.308 21.308 21.308s21.308-9.54 21.308-21.308z" fill="url(#g)"/><path d="m255.694 179.793c14.257 0 25.815 11.558 25.815 25.815s-11.558 25.815-25.815 25.815c-14.258 0-25.815-11.558-25.815-25.815s11.558-25.815 25.815-25.815z" fill="url(#h)" stroke="#f5f5f5" stroke-width=".819532"/></g></svg>